<svg height='100px' width='100px'  fill="#FFFFFF" xmlns="http://www.w3.org/2000/svg" viewBox="0 0 48 48" x="0px" y="0px"><title>Diploma-Certificate</title><g><path d="M42,3H6A3,3,0,0,0,3,6V34a3,3,0,0,0,3,3H27V35H6a1,1,0,0,1-1-1V6A1,1,0,0,1,6,5H42a1,1,0,0,1,1,1V22h2V6A3,3,0,0,0,42,3Z"></path><path d="M41,19V9a2,2,0,0,0-2-2H9A2,2,0,0,0,7,9V31a2,2,0,0,0,2,2H25V31H9V9H39V19Z"></path><path d="M36,21a8.992,8.992,0,0,0-4,17.05V45a1,1,0,0,0,1.555.832L36,44.2l2.445,1.63A1,1,0,0,0,40,45V38.05A8.992,8.992,0,0,0,36,21Zm2,18v4.132l-1.445-.964a1,1,0,0,0-1.11,0L34,43.132V39Zm-2-2a7,7,0,1,1,7-7A7.008,7.008,0,0,1,36,37Z"></path><path d="M36,25a5,5,0,1,0,5,5A5.006,5.006,0,0,0,36,25Zm0,8a3,3,0,1,1,3-3A3,3,0,0,1,36,33Z"></path><rect x="19" y="13" width="8" height="2"></rect><rect x="14" y="18" width="18" height="2"></rect></g></svg>