<svg height='100px' width='100px'  fill="#FFFFFF" xmlns:dc="http://purl.org/dc/elements/1.1/" xmlns:cc="http://creativecommons.org/ns#" xmlns:rdf="http://www.w3.org/1999/02/22-rdf-syntax-ns#" xmlns:svg="http://www.w3.org/2000/svg" xmlns="http://www.w3.org/2000/svg" xmlns:sodipodi="http://sodipodi.sourceforge.net/DTD/sodipodi-0.dtd" xmlns:inkscape="http://www.inkscape.org/namespaces/inkscape" version="1.1" x="0px" y="0px" viewBox="0 0 100 100"><g transform="translate(0,-952.36218)"><path style="font-size:medium;font-style:normal;font-variant:normal;font-weight:normal;font-stretch:normal;text-indent:0;text-align:start;text-decoration:none;line-height:normal;letter-spacing:normal;word-spacing:normal;text-transform:none;direction:ltr;block-progression:tb;writing-mode:lr-tb;text-anchor:start;baseline-shift:baseline;opacity:1;color:#000000;fill:#FFFFFF;fill-opacity:1;stroke:none;stroke-width:3.99999976000000010;marker:none;visibility:visible;display:inline;overflow:visible;enable-background:accumulate;font-family:Sans;-inkscape-font-specification:Sans" d="M 35.8125 12 A 2.0001999 2.0001999 0 0 0 34 14 L 34 21.84375 A 2.0001999 2.0001999 0 1 0 38 21.84375 L 38 16 L 62 16 L 62 21.84375 A 2.0001999 2.0001999 0 1 0 66 21.84375 L 66 14 A 2.0001999 2.0001999 0 0 0 64 12 L 36 12 A 2.0001999 2.0001999 0 0 0 35.8125 12 z M 10 28 C 8.8333 27.99994 7.9086609 28.4948 7.21875 29.1875 C 6.5288391 29.8802 6.0000012 30.83527 6 32 L 6 82.96875 C 6.0000007 84.31035 6.3723678 85.67885 7.34375 86.65625 C 8.3151322 87.63375 9.6666055 88 11 88 L 89 88 C 90.333333 88 91.684846 87.62775 92.65625 86.65625 C 93.627654 85.68485 93.999999 84.3333 94 83 L 94 32 C 93.999999 30.83333 93.470533 29.87677 92.78125 29.1875 C 92.091967 28.49823 91.1667 27.99994 90 28 L 10 28 z M 10 32 L 90 32 L 90 46.59375 L 78.4375 53.125 L 59 53.125 L 59 50.5625 A 2.0002005 2.0002005 0 0 0 57 48.5625 L 43 48.5625 A 2.0002005 2.0002005 0 0 0 42.8125 48.5625 A 2.0002005 2.0002005 0 0 0 41 50.5625 L 41 53.125 L 21.5625 53.125 L 10 46.59375 L 10 32 z M 10 51.1875 L 20 56.875 A 2.0001999 2.0001999 0 0 0 21 57.125 L 41 57.125 L 41 60.3125 A 2.0002005 2.0002005 0 0 0 43 62.3125 L 57 62.3125 A 2.0002005 2.0002005 0 0 0 59 60.3125 L 59 57.125 L 79 57.125 A 2.0001999 2.0001999 0 0 0 80 56.875 L 90 51.1875 L 90 83 C 90 83.6667 89.872346 83.7839 89.84375 83.8125 C 89.81515 83.8415 89.666667 84 89 84 L 11 84 C 10.333211 84 10.184822 83.8413 10.15625 83.8125 C 10.127678 83.7837 10 83.65205 10 82.96875 L 10 51.1875 z M 45 52.5625 L 55 52.5625 L 55 58.3125 L 45 58.3125 L 45 52.5625 z " transform="translate(0,952.36218)"></path></g></svg>