<svg height='100px' width='100px'  fill="#FFFFFF" xmlns="http://www.w3.org/2000/svg" viewBox="0 0 64 64" x="0px" y="0px"><title>portfolio-document-files-folders-data</title><g><path d="M26,8a1,1,0,0,0-1,1V27H22.5l-2.7-3.6A1,1,0,0,0,19,23H12a1,1,0,0,0-1,1v3H8a1,1,0,0,0-1,1V52a3,3,0,0,0,3,3H48a1,1,0,0,0,1-1V51h7a1,1,0,0,0,1-1V9a1,1,0,0,0-1-1ZM13,25h5.5L20,27H13ZM9,52V29h2V52a1,1,0,0,1-2,0Zm38,1H12.816A2.966,2.966,0,0,0,13,52V29H25V50a1,1,0,0,0,1,1H47Zm8-4H27V10H55Z"></path><path d="M31.946,25.453h0a7.274,7.274,0,0,0,.644.443h0q.3.186.629.342c.022.011.043.024.065.034.191.09.388.169.587.243.045.017.088.038.134.054a7.544,7.544,0,0,0,2.5.429,7.44,7.44,0,0,0,1.136-.094c.094-.015.185-.041.278-.059a7.367,7.367,0,0,0,.822-.2c.119-.037.235-.083.353-.126.24-.09.475-.191.707-.3.119-.059.237-.119.353-.185.083-.047.17-.082.252-.131a7.512,7.512,0,1,0-8.471-.443ZM35,19a1.5,1.5,0,0,1,3,0,1.48,1.48,0,0,1-.18.7,4.517,4.517,0,0,0-2.639,0A1.469,1.469,0,0,1,35,19Zm-.176,3.052a3.361,3.361,0,0,0,3.353,0,2.832,2.832,0,0,1,1.081,1.6l.131.526h0a5.446,5.446,0,0,1-.936.459c-.013,0-.026.014-.039.019a5.471,5.471,0,0,1-3.152.2l-.047-.006a5.541,5.541,0,0,1-.929-.322c-.114-.05-.222-.113-.332-.171s-.225-.129-.336-.2l.126-.5A2.832,2.832,0,0,1,34.825,22.051Zm-3.671-3.839a5.5,5.5,0,1,1,9.861,4.415,4.808,4.808,0,0,0-1.429-2.009A3.463,3.463,0,0,0,40,19a3.5,3.5,0,0,0-7,0,3.464,3.464,0,0,0,.416,1.619,4.816,4.816,0,0,0-1.424,1.993c-.058-.083-.129-.154-.182-.241A5.463,5.463,0,0,1,31.154,18.212Z"></path><rect x="51" y="12" width="2" height="2"></rect><rect x="47" y="19" width="4" height="2"></rect><rect x="34" y="31" width="17" height="2"></rect><rect x="34" y="35" width="17" height="2"></rect><rect x="34" y="39" width="17" height="2"></rect><rect x="40" y="43" width="2" height="2"></rect><rect x="36" y="43" width="2" height="2"></rect><rect x="44" y="43" width="2" height="2"></rect><rect x="47" y="23" width="6" height="2"></rect></g></svg>