<svg height='100px' width='100px'  fill="#FFFFFF" xmlns="http://www.w3.org/2000/svg" xmlns:xlink="http://www.w3.org/1999/xlink" version="1.1" x="0px" y="0px" viewBox="0 0 100 100" style="enable-background:new 0 0 100 100;" xml:space="preserve"><path d="M93,37c1.1,0,2-0.9,2-2V25c0-1.1-0.9-2-2-2H52.3c-3.5-6-9.9-10-17.3-10c-11,0-20,9-20,20c0,7.6,4.2,14.2,10.5,17.6  C13.6,54.6,5,65.8,5,79v6c0,1.1,0.9,2,2,2h56c1.1,0,2-0.9,2-2v-6c0-0.7,0-1.3-0.1-2H93c1.1,0,2-0.9,2-2V65c0-1.1-0.9-2-2-2H60.4  c-1.4-2.2-3.1-4.2-5-6H93c1.1,0,2-0.9,2-2V45c0-1.1-0.9-2-2-2H52.3c1.1-1.8,1.9-3.9,2.3-6H93z M19,33c0-8.8,7.2-16,16-16  s16,7.2,16,16s-7.2,16-16,16S19,41.8,19,33z M39.3,53.4L36.9,57h-3.9l-2.4-3.6c1.4-0.2,2.9-0.4,4.3-0.4S37.9,53.1,39.3,53.4z   M26.3,83H9v-4c0-11.4,7.3-21.1,17.5-24.6l3.4,5L26.3,83z M30.3,83l3.4-22h2.6l3.4,22H30.3z M77,67h14v6H77V67z M73,67v6h-8.6  c-0.4-2.1-1.1-4.1-1.9-6H73z M61,79v4H43.7l-3.6-23.5l3.4-5C53.7,57.9,61,67.6,61,79z M85,47h6v6h-6V47z M81,47v6H49.9  c-1.7-1-3.5-1.8-5.4-2.4c1.7-1,3.3-2.2,4.7-3.6H81z M71,27h20v6H71V27z M67,27v6H55c0-2.1-0.3-4.1-0.9-6H67z"></path></svg>